<svg width="398" height="246" viewBox="0 0 398 246" fill="none" xmlns="http://www.w3.org/2000/svg">
<path d="M282.5 153.5L202 103.5L367 1.5L163.5 94L89 72L367 1.5L282.5 153.5Z" fill="#B1CDE2"/>
<path d="M367 1.5L282.5 153.5L202 103.5L367 1.5ZM367 1.5L89 72L163.5 94L367 1.5Z" stroke="black"/>
<path d="M184 162.5L163.5 94L366.5 2L202 103.5L231 121.5L184 162.5Z" fill="#8BBDD8"/>
<path d="M184 162.5L163.5 94L366.5 2L202 103.5M184 162.5L202 103.5M184 162.5L231 121.5L202 103.5" stroke="black"/>
<path d="M169.5 175C128 216.5 108.132 243.084 55 236C2.5 229 -16.5 175 19 141C33.6667 129.833 69.9 116.6 97.5 153C120.626 183.5 154.4 235.2 256 244C283 245.333 348.9 237.3 396.5 194.5" stroke="black" stroke-width="2" stroke-dasharray="15 15"/>
</svg>
